<svg width="20" height="20" viewBox="-1 -1 21 23" fill="none" xmlns="http://www.w3.org/2000/svg">
  <path d="M9.99965 19.552L9.27798 19.042C8.32798 18.3703 -0.000357012 12.3195 -0.000357012 6.79199C-0.0542402 5.24324 0.5072 3.73613 1.56124 2.60011C2.61528 1.46409 4.0762 0.791547 5.62465 0.729492C6.47936 0.737892 7.32024 0.946296 8.07996 1.33802C8.83967 1.72974 9.49711 2.2939 9.99965 2.98533C10.5022 2.2939 11.1596 1.72974 11.9193 1.33802C12.6791 0.946296 13.5199 0.737892 14.3747 0.729492C15.9231 0.791547 17.384 1.46409 18.4381 2.60011C19.4921 3.73613 20.0535 5.24324 19.9997 6.79199C19.9997 12.3195 11.6713 18.3703 10.7213 19.042L9.99965 19.552Z" 
  stroke="currentColor" stroke-width="1.8" fill="none"/>
</svg>
